<?xml version="1.0" encoding="UTF-8"?>
<svg id="Objects" xmlns="http://www.w3.org/2000/svg" xmlns:xlink="http://www.w3.org/1999/xlink" viewBox="0 0 1366 768">
  <defs>
    <style>
      .cls-1, .cls-2, .cls-3, .cls-4, .cls-5, .cls-6 {
        fill: none;
      }

      .cls-1, .cls-3, .cls-7, .cls-5, .cls-6 {
        stroke-linecap: round;
        stroke-linejoin: round;
        stroke-width: 1.5px;
      }

      .cls-1, .cls-7 {
        stroke: gray;
      }

      .cls-8 {
        letter-spacing: -.04em;
      }

      .cls-9 {
        filter: url(#outer-glow-2);
      }

      .cls-9, .cls-10 {
        fill: #f24c53;
      }

      .cls-2 {
        stroke-dasharray: 0 0 12.04 12.04;
      }

      .cls-2, .cls-3, .cls-6 {
        stroke: #999;
      }

      .cls-2, .cls-4 {
        stroke-miterlimit: 10;
      }

      .cls-11 {
        fill: #fff;
      }

      .cls-12, .cls-13, .cls-14 {
        fill: #999;
      }

      .cls-3 {
        stroke-dasharray: 0 0 5.93 5.93;
      }

      .cls-13 {
        font-size: 20px;
      }

      .cls-13, .cls-14 {
        font-family: MetroSans-Bold, 'Metro Sans';
        font-weight: 700;
      }

      .cls-4 {
        filter: url(#outer-glow-1);
        stroke: #f24c53;
        stroke-width: 3px;
      }

      .cls-7 {
        filter: url(#outer-glow-3);
      }

      .cls-15 {
        opacity: .4;
      }

      .cls-14 {
        font-size: 18px;
      }

      .cls-16 {
        letter-spacing: -.03em;
      }

      .cls-5 {
        stroke: #666;
      }
    </style>
    <symbol id="Boundary" viewBox="0 0 101.44 123.68">
      <polygon class="cls-10" points="16.03 123.68 16.03 114.09 35.94 114.09 35.94 108.17 26.3 108.17 26.3 98.52 71.89 98.52 50.71 61.84 71.89 25.15 25.15 25.15 25.15 76.03 0 76.03 0 0 86.56 0 101.01 25.02 79.76 61.84 101.44 99.4 87.43 123.68 16.03 123.68"/>
    </symbol>
    <filter id="outer-glow-1" filterUnits="userSpaceOnUse">
      <feOffset dx="0" dy="0"/>
      <feGaussianBlur result="blur" stdDeviation="5"/>
      <feFlood flood-color="#f24c53" flood-opacity=".5"/>
      <feComposite in2="blur" operator="in"/>
      <feComposite in="SourceGraphic"/>
    </filter>
    <filter id="outer-glow-2" filterUnits="userSpaceOnUse">
      <feOffset dx="0" dy="0"/>
      <feGaussianBlur result="blur-2" stdDeviation="5"/>
      <feFlood flood-color="#ec585d" flood-opacity="1"/>
      <feComposite in2="blur-2" operator="in"/>
      <feComposite in="SourceGraphic"/>
    </filter>
    <filter id="outer-glow-3" filterUnits="userSpaceOnUse">
      <feOffset dx="0" dy="0"/>
      <feGaussianBlur result="blur-3" stdDeviation="5"/>
      <feFlood flood-color="#000" flood-opacity=".75"/>
      <feComposite in2="blur-3" operator="in"/>
      <feComposite in="SourceGraphic"/>
    </filter>
  </defs>
  <rect class="cls-1" x="74.37" y="366.64" width="100" height="100" rx="7" ry="7"/>
  <rect class="cls-4" x="271.75" y="171.81" width="100" height="100" rx="7" ry="7"/>
  <rect class="cls-9" x="472.44" y="366.64" width="100" height="100" rx="7" ry="7"/>
  <rect class="cls-7" x="870.5" y="366.64" width="100" height="100" rx="7" ry="7"/>
  <rect class="cls-1" x="1111.2" y="222.98" width="100" height="100" rx="7" ry="7"/>
  <rect class="cls-1" x="1111.2" y="366.64" width="100" height="100" rx="7" ry="7"/>
  <rect class="cls-1" x="1111.2" y="510.3" width="100" height="100" rx="7" ry="7"/>
  <use width="101.44" height="123.68" transform="translate(294.2 189.16) scale(.53)" xlink:href="#Boundary"/>
  <polygon class="cls-11" points="503.92 449.64 503.92 444.52 514.55 444.52 514.55 441.36 509.41 441.36 509.41 436.22 533.73 436.22 522.43 416.64 533.73 397.06 508.79 397.06 508.79 424.21 495.37 424.21 495.37 383.64 541.56 383.64 549.27 396.99 537.93 416.64 549.5 436.68 542.03 449.64 503.92 449.64"/>
  <polygon class="cls-11" points="901.99 449.64 901.99 444.52 912.61 444.52 912.61 441.36 907.47 441.36 907.47 436.22 931.8 436.22 920.49 416.64 931.8 397.06 906.85 397.06 906.85 424.21 893.43 424.21 893.43 383.64 939.63 383.64 947.34 396.99 936 416.64 947.57 436.68 940.09 449.64 901.99 449.64"/>
  <g>
    <rect class="cls-5" x="1141.86" y="253.64" width="38.68" height="15.47" rx="3.87" ry="3.87"/>
    <rect class="cls-5" x="1141.86" y="276.85" width="38.68" height="15.47" rx="3.87" ry="3.87"/>
    <line class="cls-5" x1="1149.6" y1="261.38" x2="1149.62" y2="261.38"/>
    <line class="cls-5" x1="1149.6" y1="284.58" x2="1149.62" y2="284.58"/>
  </g>
  <g>
    <rect class="cls-5" x="1141.86" y="397.3" width="38.68" height="15.47" rx="3.87" ry="3.87"/>
    <rect class="cls-5" x="1141.86" y="420.51" width="38.68" height="15.47" rx="3.87" ry="3.87"/>
    <line class="cls-5" x1="1149.6" y1="405.04" x2="1149.62" y2="405.04"/>
    <line class="cls-5" x1="1149.6" y1="428.25" x2="1149.62" y2="428.25"/>
  </g>
  <g>
    <rect class="cls-5" x="1141.86" y="540.96" width="38.68" height="15.47" rx="3.87" ry="3.87"/>
    <rect class="cls-5" x="1141.86" y="564.17" width="38.68" height="15.47" rx="3.87" ry="3.87"/>
    <line class="cls-5" x1="1149.6" y1="548.7" x2="1149.62" y2="548.7"/>
    <line class="cls-5" x1="1149.6" y1="571.91" x2="1149.62" y2="571.91"/>
  </g>
  <g>
    <path class="cls-5" d="m135.16,436.07v-4.32c0-4.77-3.87-8.63-8.63-8.63h-17.27c-4.77,0-8.63,3.87-8.63,8.63v4.32"/>
    <circle class="cls-5" cx="117.9" cy="405.85" r="8.63"/>
    <path class="cls-5" d="m148.11,436.07v-4.32c0-3.93-2.67-7.37-6.47-8.35"/>
    <path class="cls-5" d="m133.01,397.5c4.62,1.18,7.4,5.89,6.22,10.5-.78,3.05-3.17,5.44-6.22,6.22"/>
  </g>
  <g>
    <line class="cls-6" x1="992.79" y1="397.47" x2="1082.32" y2="313.4"/>
    <path class="cls-12" d="m1088.92,307.2c-2.02,4.07-4.03,9.65-4.46,13.98l-3-6.97-6.76-3.43c4.34-.16,10.04-1.81,14.23-3.58Z"/>
  </g>
  <g>
    <line class="cls-6" x1="997.04" y1="423.12" x2="1077.98" y2="423.12"/>
    <path class="cls-12" d="m1087.04,423.12c-4.26,1.58-9.54,4.28-12.82,7.13l2.58-7.13-2.58-7.13c3.28,2.86,8.56,5.55,12.82,7.13Z"/>
  </g>
  <g>
    <line class="cls-6" x1="996.28" y1="451" x2="1080.49" y2="535.21"/>
    <path class="cls-12" d="m1086.89,541.61c-4.13-1.89-9.77-3.72-14.11-4.02l6.87-3.22,3.22-6.87c.3,4.34,2.13,9.98,4.02,14.11Z"/>
  </g>
  <g>
    <line class="cls-6" x1="449.92" y1="351.93" x2="385.57" y2="287.58"/>
    <path class="cls-12" d="m456.32,358.33c-1.89-4.13-3.72-9.77-4.02-14.11l-3.22,6.87-6.87,3.22c4.34.3,9.98,2.13,14.11,4.02Z"/>
  </g>
  <g>
    <line class="cls-6" x1="251.65" y1="296.72" x2="187.3" y2="361.07"/>
    <path class="cls-12" d="m258.05,290.32c-4.13,1.89-9.77,3.72-14.11,4.02l6.87,3.22,3.22,6.87c.3-4.34,2.13-9.98,4.02-14.11Z"/>
  </g>
  <rect class="cls-2" x="819.8" y="134.05" width="471.83" height="561.97" rx="12" ry="12"/>
  <g>
    <line class="cls-6" x1="587.72" y1="423.4" x2="848.88" y2="423.4"/>
    <path class="cls-12" d="m857.94,423.4c-4.26,1.58-9.54,4.28-12.82,7.13l2.58-7.13-2.58-7.13c3.28,2.86,8.56,5.55,12.82,7.13Z"/>
  </g>
  <g class="cls-15">
    <g>
      <line class="cls-6" x1="185.38" y1="423.4" x2="188.38" y2="423.4"/>
      <line class="cls-3" x1="194.32" y1="423.4" x2="440.58" y2="423.4"/>
      <line class="cls-6" x1="443.55" y1="423.4" x2="446.55" y2="423.4"/>
      <path class="cls-12" d="m455.6,423.4c-4.26,1.58-9.54,4.28-12.82,7.13l2.58-7.13-2.58-7.13c3.28,2.86,8.56,5.55,12.82,7.13Z"/>
    </g>
  </g>
  <text class="cls-13" transform="translate(91.03 496.3)"><tspan x="0" y="0">CLIEN</tspan><tspan class="cls-8" x="55.66" y="0">T</tspan></text>
  <g>
    <path class="cls-12" d="m483.03,495.06v-14h2.29v14h-2.29Z"/>
    <path class="cls-12" d="m496.83,495.06l-6.3-10.7v10.7h-2.1v-14h2.7l6.5,11.04v-11.04h2.1v14.02l-2.9-.02Z"/>
    <path class="cls-12" d="m503.85,493.16c-1.23-1.33-1.84-3.01-1.83-5.04,0-2.08.64-3.8,1.89-5.16,1.24-1.36,2.84-2.04,4.79-2.04,1.68,0,3.07.48,4.15,1.43,1.08.96,1.74,2.18,1.95,3.65h-2.52c-.15-.8-.56-1.48-1.21-2.05-.66-.57-1.48-.85-2.47-.85-1.24,0-2.24.48-2.99,1.45s-1.13,2.17-1.13,3.59.38,2.55,1.13,3.48c.75.94,1.73,1.4,2.93,1.39.92,0,1.75-.27,2.48-.77s1.22-1.26,1.47-2.29h-4v-2.08h6.31v7.2h-1.92l-.16-2.06c-.44.69-1.04,1.22-1.8,1.59-.75.38-1.56.57-2.43.57-1.87,0-3.42-.66-4.65-2Z"/>
    <path class="cls-12" d="m517.7,495.08v-14.02l6.04-.02c1.21,0,2.2.37,2.96,1.11s1.14,1.66,1.14,2.75c0,.87-.21,1.61-.62,2.23s-.92,1.03-1.49,1.23c1.2.38,1.75,1.43,1.88,3.22.03.32.06.71.09,1.19s.05.81.07.99c.04.35.15.87.39,1.3h-2.48c-.11-.26-.2-.55-.24-.96-.03-.21-.04-.37-.05-.52,0-.14-.02-.37-.04-.7s-.04-.6-.05-.8c-.04-.56-.1-1-.17-1.31-.08-.31-.21-.61-.4-.88-.39-.55-1.11-.75-2.31-.75h-2.5v5.94h-2.2Zm2.2-7.84h3.28c1.49,0,2.48-.66,2.48-2.14s-1-2.16-2.48-2.16h-3.28v4.3Z"/>
    <path class="cls-12" d="m529.63,495.06v-14h9.18v2.15h-7.04v3.74h6.62v2.05h-6.62v3.93h7.04v2.14h-9.18Z"/>
    <path class="cls-12" d="m541.74,494.04c-1.11-.77-1.72-1.87-1.83-3.29h2.48c.35,1.52,1.46,2.37,3.25,2.37.81,0,1.46-.21,1.95-.64.49-.42.73-.91.73-1.46,0-1.13-.85-1.79-2.56-1.95-1.92-.21-3.31-.66-4.18-1.4-.87-.72-1.3-1.6-1.3-2.63,0-1.14.47-2.12,1.42-2.91s2.14-1.19,3.58-1.19c1.57,0,2.82.39,3.75,1.18s1.42,1.88,1.48,3.26h-2.35c-.05-.71-.35-1.27-.9-1.68-.56-.4-1.22-.61-2-.61s-1.38.19-1.82.57-.66.82-.66,1.3c0,1.06,1.07,1.75,2.83,1.95,1.89.21,3.23.67,4.02,1.39s1.18,1.63,1.18,2.73c0,1.27-.49,2.28-1.46,3.03s-2.22,1.13-3.73,1.13-2.79-.39-3.91-1.16Z"/>
    <path class="cls-12" d="m554.06,494.04c-1.11-.77-1.72-1.87-1.83-3.29h2.48c.35,1.52,1.46,2.37,3.25,2.37.81,0,1.46-.21,1.95-.64.49-.42.73-.91.73-1.46,0-1.13-.85-1.79-2.56-1.95-1.92-.21-3.31-.66-4.18-1.4-.87-.72-1.3-1.6-1.3-2.63,0-1.14.47-2.12,1.42-2.91s2.14-1.19,3.58-1.19c1.57,0,2.82.39,3.75,1.18s1.42,1.88,1.48,3.26h-2.35c-.05-.71-.35-1.27-.9-1.68-.56-.4-1.22-.61-2-.61s-1.38.19-1.82.57-.66.82-.66,1.3c0,1.06,1.07,1.75,2.83,1.95,1.89.21,3.23.67,4.02,1.39s1.18,1.63,1.18,2.73c0,1.27-.49,2.28-1.46,3.03s-2.22,1.13-3.73,1.13-2.79-.39-3.91-1.16Z"/>
    <path class="cls-12" d="m486.46,519.06l-4.24-14h2.26l3.02,10.86,2.92-10.86h2.08l3.11,10.86,2.82-10.86h2.24l-4.04,14h-2.06l-3.1-10.7-2.94,10.7h-2.06Z"/>
    <path class="cls-12" d="m507.99,519.26c-1.87,0-3.44-.68-4.72-2.04s-1.92-3.08-1.92-5.16.64-3.77,1.92-5.13,2.85-2.03,4.72-2.03,3.45.68,4.73,2.04,1.91,3.08,1.91,5.16-.63,3.77-1.91,5.13-2.86,2.03-4.73,2.03Zm3.12-3.54c.81-.93,1.21-2.12,1.21-3.56s-.41-2.72-1.22-3.7c-.81-.97-1.86-1.46-3.12-1.46s-2.29.48-3.09,1.45c-.81.97-1.21,2.2-1.21,3.67s.4,2.63,1.21,3.57,1.83,1.43,3.07,1.43,2.33-.47,3.14-1.4Z"/>
    <path class="cls-12" d="m516.92,519.08v-14.02l6.04-.02c1.21,0,2.2.37,2.96,1.11s1.14,1.66,1.14,2.75c0,.87-.21,1.61-.62,2.23s-.92,1.03-1.49,1.23c1.2.38,1.75,1.43,1.88,3.22.03.32.06.71.09,1.19s.05.81.07.99c.04.35.15.87.39,1.3h-2.48c-.11-.26-.2-.55-.24-.96-.03-.21-.04-.37-.05-.52,0-.14-.02-.37-.04-.7s-.04-.6-.05-.8c-.04-.56-.1-1-.17-1.31-.08-.31-.21-.61-.4-.88-.39-.55-1.11-.75-2.31-.75h-2.5v5.94h-2.2Zm2.2-7.84h3.28c1.49,0,2.48-.66,2.48-2.14s-1-2.16-2.48-2.16h-3.28v4.3Z"/>
    <path class="cls-12" d="m528.86,519.06v-14h2.1v6.88l6.2-6.88h2.68l-5.9,6.52,6.11,7.48h-2.79l-4.84-5.92-1.46,1.64v4.28h-2.1Z"/>
    <path class="cls-12" d="m541.65,519.06v-14h9.18v2.15h-7.04v3.74h6.62v2.05h-6.62v3.93h7.04v2.14h-9.18Z"/>
    <path class="cls-12" d="m552.93,519.08v-14.02l6.04-.02c1.21,0,2.2.37,2.96,1.11s1.14,1.66,1.14,2.75c0,.87-.21,1.61-.62,2.23s-.92,1.03-1.49,1.23c1.2.38,1.75,1.43,1.88,3.22.03.32.06.71.09,1.19s.05.81.07.99c.04.35.15.87.39,1.3h-2.48c-.11-.26-.2-.55-.24-.96-.03-.21-.04-.37-.05-.52,0-.14-.02-.37-.04-.7s-.04-.6-.05-.8c-.04-.56-.1-1-.17-1.31-.08-.31-.21-.61-.4-.88-.39-.55-1.11-.75-2.31-.75h-2.5v5.94h-2.2Zm2.2-7.84h3.28c1.49,0,2.48-.66,2.48-2.14s-1-2.16-2.48-2.16h-3.28v4.3Z"/>
  </g>
  <g>
    <path class="cls-12" d="m303.39,134.05v-14h2.33v5.84h6.58v-5.84h2.34v14h-2.34v-6.24h-6.58v6.24h-2.33Z"/>
    <path class="cls-12" d="m318.83,132.14c-1.27-1.34-1.89-3.01-1.88-5.03,0-2.08.64-3.8,1.89-5.16,1.24-1.36,2.84-2.04,4.79-2.04,1.68,0,3.07.48,4.15,1.43,1.08.96,1.74,2.18,1.95,3.65h-2.52c-.15-.8-.56-1.48-1.21-2.05-.66-.57-1.48-.85-2.47-.85-1.24,0-2.24.48-2.99,1.45s-1.13,2.17-1.13,3.59.37,2.54,1.12,3.47c.74.93,1.72,1.4,2.92,1.4,1.02,0,1.86-.29,2.52-.89s1.07-1.28,1.24-2.07h2.52c-.24,1.46-.91,2.69-2.01,3.65-1.1.98-2.51,1.46-4.23,1.46-1.85,0-3.4-.67-4.66-2.01Z"/>
    <path class="cls-12" d="m331.93,134.07v-14.02l6-.02c1.21,0,2.2.41,2.96,1.22s1.14,1.84,1.14,3.07-.39,2.22-1.17,3.01-1.8,1.19-3.05,1.19h-3.72v5.56h-2.16Zm2.16-7.46h3.28c.72,0,1.32-.21,1.79-.61.46-.4.69-.97.69-1.72s-.23-1.32-.7-1.74c-.47-.41-1.06-.62-1.78-.62h-3.28v4.68Z"/>
    <path class="cls-12" d="m270.39,158.09v-14.04h5.77c1.17,0,2.14.32,2.9.97.76.65,1.14,1.53,1.14,2.66,0,.65-.17,1.22-.51,1.71s-.76.85-1.27,1.09c.71.26,1.3.74,1.76,1.42.46.68.67,1.44.66,2.27-.03,1.21-.41,2.17-1.14,2.87-.73.71-1.73,1.06-2.98,1.06h-6.34Zm2.14-8.26h3.61c.48,0,.9-.18,1.25-.53.34-.35.52-.79.52-1.31,0-1.14-.66-1.96-1.87-1.96h-3.52v3.8Zm.04,6.14h3.74c.62,0,1.11-.19,1.5-.57.38-.37.58-.87.58-1.49s-.2-1.1-.59-1.51c-.4-.4-.9-.61-1.49-.61h-3.74v4.18Z"/>
    <path class="cls-12" d="m288.79,158.25c-1.87,0-3.44-.68-4.72-2.04s-1.92-3.08-1.92-5.16.64-3.77,1.92-5.13,2.85-2.03,4.72-2.03,3.45.68,4.73,2.04,1.91,3.08,1.91,5.16-.63,3.77-1.91,5.13-2.86,2.03-4.73,2.03Zm3.12-3.54c.81-.93,1.21-2.12,1.21-3.56s-.41-2.72-1.22-3.7c-.81-.97-1.86-1.46-3.12-1.46s-2.29.48-3.09,1.45c-.81.97-1.21,2.2-1.21,3.67s.4,2.63,1.21,3.57,1.83,1.43,3.07,1.43,2.33-.47,3.14-1.4Z"/>
    <path class="cls-12" d="m303.2,158.21c-1.72,0-3.1-.51-4.13-1.52-1.04-1.01-1.55-2.37-1.55-4.09v-8.54h2.2v8.54c0,1.13.31,2.01.95,2.63.62.62,1.47.93,2.54.93s1.89-.31,2.53-.93.95-1.49.95-2.63v-8.54h2.2v8.54c0,1.72-.52,3.09-1.54,4.09-1.04,1.02-2.41,1.52-4.13,1.52Z"/>
    <path class="cls-12" d="m320.08,158.05l-6.3-10.7v10.7h-2.1v-14h2.7l6.5,11.04v-11.04h2.1v14.02l-2.9-.02Z"/>
    <path class="cls-12" d="m325.98,158.09v-14.04l5.02-.04c1.9-.03,3.5.62,4.77,1.93,1.26,1.32,1.89,2.99,1.89,5.01s-.62,3.74-1.85,5.08c-1.24,1.34-2.77,2.01-4.62,2.02l-5.21.04Zm2.08-2.12l2.85-.04c1.28-.03,2.35-.49,3.22-1.4.87-.9,1.3-2.07,1.3-3.51s-.42-2.63-1.27-3.54c-.85-.9-1.9-1.33-3.16-1.3l-2.94.04v9.74Z"/>
    <path class="cls-12" d="m340.35,158.05l-2.5-.02,5.36-13.98h2.24l5.36,14h-2.5l-1.32-3.44h-5.34l-1.3,3.44Zm1.9-5.44h4.13l-2.05-5.82-2.08,5.82Z"/>
    <path class="cls-12" d="m352.72,158.07v-14.02l6.04-.02c1.21,0,2.2.37,2.96,1.11s1.14,1.66,1.14,2.75c0,.87-.21,1.61-.62,2.23s-.92,1.03-1.49,1.23c1.2.38,1.75,1.43,1.88,3.22.03.32.06.71.09,1.19s.05.81.07.99c.04.35.15.87.39,1.3h-2.48c-.11-.26-.2-.55-.24-.96-.03-.21-.04-.37-.05-.52,0-.14-.02-.37-.04-.7s-.04-.6-.05-.8c-.04-.56-.1-1-.17-1.31-.08-.31-.21-.61-.4-.88-.39-.55-1.11-.75-2.31-.75h-2.5v5.94h-2.2Zm2.2-7.84h3.28c1.49,0,2.48-.66,2.48-2.14s-1-2.16-2.48-2.16h-3.28v4.3Z"/>
    <path class="cls-12" d="m367.71,158.05v-5.64l-5.17-8.36h2.42l3.82,6.37,4.02-6.37h2.22l-5.16,8.36v5.64h-2.16Z"/>
  </g>
  <g>
    <path class="cls-12" d="m1018.41,89v-14.02l6-.02c1.21,0,2.2.41,2.96,1.22s1.14,1.84,1.14,3.07-.39,2.22-1.17,3.01-1.8,1.19-3.05,1.19h-3.72v5.56h-2.16Zm2.16-7.46h3.28c.72,0,1.32-.21,1.79-.61.46-.4.69-.97.69-1.72s-.23-1.32-.7-1.74c-.47-.41-1.06-.62-1.78-.62h-3.28v4.68Z"/>
    <path class="cls-12" d="m1030.4,89v-14.02l6.04-.02c1.21,0,2.2.37,2.96,1.11s1.14,1.66,1.14,2.75c0,.87-.21,1.61-.62,2.23s-.92,1.03-1.49,1.23c1.2.38,1.75,1.43,1.88,3.22.03.32.06.71.09,1.19s.05.81.07.99c.04.35.15.87.39,1.3h-2.48c-.11-.26-.2-.55-.24-.96-.03-.21-.04-.37-.05-.52,0-.14-.02-.37-.04-.7s-.04-.6-.05-.8c-.04-.56-.1-1-.17-1.31-.08-.31-.21-.61-.4-.88-.39-.55-1.11-.75-2.31-.75h-2.5v5.94h-2.2Zm2.2-7.84h3.28c1.49,0,2.48-.66,2.48-2.14s-1-2.16-2.48-2.16h-3.28v4.3Z"/>
    <path class="cls-12" d="m1042.43,88.98v-14h2.29v14h-2.29Z"/>
    <path class="cls-12" d="m1051.77,88.98l-5.24-14h2.27l4.02,11.04,4.01-11.04h2.25l-5.24,14h-2.06Z"/>
    <path class="cls-12" d="m1060.97,88.98l-2.5-.02,5.36-13.98h2.24l5.36,14h-2.5l-1.32-3.44h-5.34l-1.3,3.44Zm1.9-5.44h4.13l-2.05-5.82-2.08,5.82Z"/>
    <path class="cls-12" d="m1076.67,88.98l.02-11.94h-4.84l-.02-2.06h11.8l.02,2.06-4.81-.02-.02,11.96h-2.14Z"/>
    <path class="cls-12" d="m1085.15,88.98v-14h9.18v2.15h-7.04v3.74h6.62v2.05h-6.62v3.93h7.04v2.14h-9.18Z"/>
    <path class="cls-12" d="m1020.48,111.95c-1.11-.77-1.72-1.87-1.83-3.29h2.48c.35,1.52,1.46,2.37,3.25,2.37.81,0,1.46-.21,1.95-.64.49-.42.73-.91.73-1.46,0-1.13-.85-1.79-2.56-1.95-1.92-.21-3.31-.66-4.18-1.4-.87-.72-1.3-1.6-1.3-2.63,0-1.14.47-2.12,1.42-2.91s2.14-1.19,3.58-1.19c1.57,0,2.82.39,3.75,1.18s1.42,1.88,1.48,3.26h-2.35c-.05-.71-.35-1.27-.9-1.68-.56-.4-1.22-.61-2-.61s-1.38.19-1.82.57-.66.82-.66,1.3c0,1.06,1.07,1.75,2.83,1.95,1.89.21,3.23.67,4.02,1.39s1.18,1.63,1.18,2.73c0,1.27-.49,2.28-1.46,3.03s-2.22,1.13-3.73,1.13-2.79-.39-3.91-1.16Z"/>
    <path class="cls-12" d="m1037.25,113.14c-1.72,0-3.1-.51-4.13-1.52-1.04-1.01-1.55-2.37-1.55-4.09v-8.54h2.2v8.54c0,1.13.31,2.01.95,2.63.62.62,1.47.93,2.54.93s1.89-.31,2.53-.93.95-1.49.95-2.63v-8.54h2.2v8.54c0,1.72-.52,3.09-1.54,4.09-1.04,1.02-2.41,1.52-4.13,1.52Z"/>
    <path class="cls-12" d="m1045.73,113.02v-14.04h5.77c1.17,0,2.14.32,2.9.97.76.65,1.14,1.53,1.14,2.66,0,.65-.17,1.22-.51,1.71s-.76.85-1.27,1.09c.71.26,1.3.74,1.76,1.42.46.68.67,1.44.66,2.27-.03,1.21-.41,2.17-1.14,2.87-.73.71-1.73,1.06-2.98,1.06h-6.34Zm2.14-8.26h3.61c.48,0,.9-.18,1.25-.53.34-.35.52-.79.52-1.31,0-1.14-.66-1.96-1.87-1.96h-3.52v3.8Zm.04,6.14h3.74c.62,0,1.11-.19,1.5-.57.38-.37.58-.87.58-1.49s-.2-1.1-.59-1.51c-.4-.4-.9-.61-1.49-.61h-3.74v4.18Z"/>
    <path class="cls-12" d="m1066.78,112.98l-6.3-10.7v10.7h-2.1v-14h2.7l6.5,11.04v-11.04h2.1v14.02l-2.9-.02Z"/>
    <path class="cls-12" d="m1072.68,112.98v-14h9.18v2.15h-7.04v3.74h6.62v2.05h-6.62v3.93h7.04v2.14h-9.18Z"/>
    <path class="cls-12" d="m1087.3,112.98l.02-11.94h-4.84l-.02-2.06h11.8l.02,2.06-4.81-.02-.02,11.96h-2.14Z"/>
  </g>
  <g>
    <path class="cls-12" d="m885.55,497.06v-14h9.18v2.15h-7.04v3.74h6.62v2.05h-6.62v3.93h7.04v2.14h-9.18Z"/>
    <path class="cls-12" d="m897.36,495.16c-1.23-1.33-1.84-3.01-1.83-5.04,0-2.08.64-3.8,1.89-5.16,1.24-1.36,2.84-2.04,4.79-2.04,1.68,0,3.07.48,4.15,1.43,1.08.96,1.74,2.18,1.95,3.65h-2.52c-.15-.8-.56-1.48-1.21-2.05-.66-.57-1.48-.85-2.47-.85-1.24,0-2.24.48-2.99,1.45s-1.13,2.17-1.13,3.59.38,2.55,1.13,3.48c.75.94,1.73,1.4,2.93,1.39.92,0,1.75-.27,2.48-.77s1.22-1.26,1.47-2.29h-4v-2.08h6.31v7.2h-1.92l-.16-2.06c-.44.69-1.04,1.22-1.8,1.59-.75.38-1.56.57-2.43.57-1.87,0-3.42-.66-4.65-2Z"/>
    <path class="cls-12" d="m911.21,497.08v-14.02l6.04-.02c1.21,0,2.2.37,2.96,1.11s1.14,1.66,1.14,2.75c0,.87-.21,1.61-.62,2.23s-.92,1.03-1.49,1.23c1.2.38,1.75,1.43,1.88,3.22.03.32.06.71.09,1.19s.05.81.07.99c.04.35.15.87.39,1.3h-2.48c-.11-.26-.2-.55-.24-.96-.03-.21-.04-.37-.05-.52,0-.14-.02-.37-.04-.7s-.04-.6-.05-.8c-.04-.56-.1-1-.17-1.31-.08-.31-.21-.61-.4-.88-.39-.55-1.11-.75-2.31-.75h-2.5v5.94h-2.2Zm2.2-7.84h3.28c1.49,0,2.48-.66,2.48-2.14s-1-2.16-2.48-2.16h-3.28v4.3Z"/>
    <path class="cls-12" d="m923.14,497.06v-14h9.18v2.15h-7.04v3.74h6.62v2.05h-6.62v3.93h7.04v2.14h-9.18Z"/>
    <path class="cls-12" d="m935.25,496.04c-1.11-.77-1.72-1.87-1.83-3.29h2.48c.35,1.52,1.46,2.37,3.25,2.37.81,0,1.46-.21,1.95-.64.49-.42.73-.91.73-1.46,0-1.13-.85-1.79-2.56-1.95-1.92-.21-3.31-.66-4.18-1.4-.87-.72-1.3-1.6-1.3-2.63,0-1.14.47-2.12,1.42-2.91s2.14-1.19,3.58-1.19c1.57,0,2.82.39,3.75,1.18s1.42,1.88,1.48,3.26h-2.35c-.05-.71-.35-1.27-.9-1.68-.56-.4-1.22-.61-2-.61s-1.38.19-1.82.57-.66.82-.66,1.3c0,1.06,1.07,1.75,2.83,1.95,1.89.21,3.23.67,4.02,1.39s1.18,1.63,1.18,2.73c0,1.27-.49,2.28-1.46,3.03s-2.22,1.13-3.73,1.13-2.79-.39-3.91-1.16Z"/>
    <path class="cls-12" d="m947.57,496.04c-1.11-.77-1.72-1.87-1.83-3.29h2.48c.35,1.52,1.46,2.37,3.25,2.37.81,0,1.46-.21,1.95-.64.49-.42.73-.91.73-1.46,0-1.13-.85-1.79-2.56-1.95-1.92-.21-3.31-.66-4.18-1.4-.87-.72-1.3-1.6-1.3-2.63,0-1.14.47-2.12,1.42-2.91s2.14-1.19,3.58-1.19c1.57,0,2.82.39,3.75,1.18s1.42,1.88,1.48,3.26h-2.35c-.05-.71-.35-1.27-.9-1.68-.56-.4-1.22-.61-2-.61s-1.38.19-1.82.57-.66.82-.66,1.3c0,1.06,1.07,1.75,2.83,1.95,1.89.21,3.23.67,4.02,1.39s1.18,1.63,1.18,2.73c0,1.27-.49,2.28-1.46,3.03s-2.22,1.13-3.73,1.13-2.79-.39-3.91-1.16Z"/>
    <path class="cls-12" d="m884.52,521.06l-4.24-14h2.26l3.02,10.86,2.92-10.86h2.08l3.11,10.86,2.82-10.86h2.24l-4.04,14h-2.06l-3.1-10.7-2.94,10.7h-2.06Z"/>
    <path class="cls-12" d="m906.05,521.26c-1.87,0-3.44-.68-4.72-2.04s-1.92-3.08-1.92-5.16.64-3.77,1.92-5.13,2.85-2.03,4.72-2.03,3.45.68,4.73,2.04,1.91,3.08,1.91,5.16-.63,3.77-1.91,5.13-2.86,2.03-4.73,2.03Zm3.12-3.54c.81-.93,1.21-2.12,1.21-3.56s-.41-2.72-1.22-3.7c-.81-.97-1.86-1.46-3.12-1.46s-2.29.48-3.09,1.45c-.81.97-1.21,2.2-1.21,3.67s.4,2.63,1.21,3.57,1.83,1.43,3.07,1.43,2.33-.47,3.14-1.4Z"/>
    <path class="cls-12" d="m914.99,521.08v-14.02l6.04-.02c1.21,0,2.2.37,2.96,1.11s1.14,1.66,1.14,2.75c0,.87-.21,1.61-.62,2.23s-.92,1.03-1.49,1.23c1.2.38,1.75,1.43,1.88,3.22.03.32.06.71.09,1.19s.05.81.07.99c.04.35.15.87.39,1.3h-2.48c-.11-.26-.2-.55-.24-.96-.03-.21-.04-.37-.05-.52,0-.14-.02-.37-.04-.7s-.04-.6-.05-.8c-.04-.56-.1-1-.17-1.31-.08-.31-.21-.61-.4-.88-.39-.55-1.11-.75-2.31-.75h-2.5v5.94h-2.2Zm2.2-7.84h3.28c1.49,0,2.48-.66,2.48-2.14s-1-2.16-2.48-2.16h-3.28v4.3Z"/>
    <path class="cls-12" d="m926.92,521.06v-14h2.1v6.88l6.2-6.88h2.68l-5.9,6.52,6.11,7.48h-2.79l-4.84-5.92-1.46,1.64v4.28h-2.1Z"/>
    <path class="cls-12" d="m939.71,521.06v-14h9.18v2.15h-7.04v3.74h6.62v2.05h-6.62v3.93h7.04v2.14h-9.18Z"/>
    <path class="cls-12" d="m950.99,521.08v-14.02l6.04-.02c1.21,0,2.2.37,2.96,1.11s1.14,1.66,1.14,2.75c0,.87-.21,1.61-.62,2.23s-.92,1.03-1.49,1.23c1.2.38,1.75,1.43,1.88,3.22.03.32.06.71.09,1.19s.05.81.07.99c.04.35.15.87.39,1.3h-2.48c-.11-.26-.2-.55-.24-.96-.03-.21-.04-.37-.05-.52,0-.14-.02-.37-.04-.7s-.04-.6-.05-.8c-.04-.56-.1-1-.17-1.31-.08-.31-.21-.61-.4-.88-.39-.55-1.11-.75-2.31-.75h-2.5v5.94h-2.2Zm2.2-7.84h3.28c1.49,0,2.48-.66,2.48-2.14s-1-2.16-2.48-2.16h-3.28v4.3Z"/>
  </g>
  <text class="cls-14" transform="translate(1124.24 345.33)"><tspan x="0" y="0">SE</tspan><tspan class="cls-16" x="21.23" y="0">R</tspan><tspan x="31.44" y="0">VER1</tspan></text>
  <text class="cls-14" transform="translate(1124.38 488.3)"><tspan x="0" y="0">SE</tspan><tspan class="cls-16" x="21.23" y="0">R</tspan><tspan x="31.44" y="0">VER2</tspan></text>
  <text class="cls-14" transform="translate(1124.27 633.19)"><tspan x="0" y="0">SE</tspan><tspan class="cls-16" x="21.23" y="0">R</tspan><tspan x="31.44" y="0">VER3</tspan></text>
</svg>